<?xml version="1.0" encoding="UTF-8"?>
<svg width="61px" height="66px" viewBox="0 0 61 66" version="1.1" xmlns="http://www.w3.org/2000/svg" xmlns:xlink="http://www.w3.org/1999/xlink">
    <!-- Generator: Sketch 61.2 (89653) - https://sketch.com -->
    <title>advertising</title>
    <desc>Created with Sketch.</desc>
    <g id="main" stroke="none" stroke-width="1" fill="none" fill-rule="evenodd">
        <g id="main-1440" transform="translate(-1185.000000, -1976.000000)" fill-rule="nonzero">
            <g id="advertising" transform="translate(1185.000000, 1976.000000)">
                <path d="M20.739503,8.25 L23.4989837,8.25 C24.2616471,8.25 24.8787887,7.63498828 24.8787887,6.87495703 C24.8787887,6.11492578 24.2616471,5.49991406 23.4989837,5.49991406 L20.739503,5.49991406 C19.9768396,5.49991406 19.359698,6.11492578 19.359698,6.87495703 C19.3598273,7.63498828 19.976969,8.25 20.739503,8.25 Z" id="Path" fill="#FFC718"></path>
                <path d="M17.9800223,60.499957 L26.2585937,60.499957 C27.0212571,60.499957 27.6383988,59.8849453 27.6383988,59.1249141 C27.6383988,58.3648828 27.0212571,57.75 26.2585937,57.75 L17.9800223,57.75 C17.2173589,57.75 16.6002173,58.3650117 16.6002173,59.125043 C16.6002173,59.8850742 17.2173589,60.499957 17.9800223,60.499957 Z" id="Path" fill="#FFC718"></path>
                <ellipse id="Oval" fill="#FFC718" cx="37.2966459" cy="6.87495703" rx="1.37980502" ry="1.37504297"></ellipse>
                <path d="M48.3348273,13.750043 C47.572164,13.750043 46.9550223,14.3650547 46.9550223,15.1250859 L46.9550223,16.8990937 L44.1955416,17.8615078 L44.1955416,5.50004297 C44.1955416,2.46662109 41.7202488,0 38.6764509,0 L5.56216518,0 C2.5183673,0 0.043074442,2.46662109 0.043074442,5.50004297 L0.043074442,60.5000859 C0.043074442,63.5333789 2.5183673,66 5.56216518,66 L38.6764509,66 C41.7202488,66 44.1955416,63.5333789 44.1955416,60.499957 L44.1955416,39.8886211 L46.9550223,40.8510352 L46.9550223,42.625043 C46.9550223,43.3850742 47.572164,44.0000859 48.3348273,44.0000859 C49.0974907,44.0000859 49.7146324,43.3850742 49.7146324,42.625043 L49.7146324,15.124957 C49.7146324,14.3650547 49.0974907,13.750043 48.3348273,13.750043 Z M41.4360609,60.499957 C41.4360609,62.0158945 40.1976384,63.2499141 38.6764509,63.2499141 L5.56216518,63.2499141 C4.04097768,63.2499141 2.80268449,62.0158945 2.80268449,60.499957 L2.80268449,54.9999141 L41.4360609,54.9999141 L41.4360609,60.499957 L41.4360609,60.499957 Z M41.4360609,52.249957 L2.80268449,52.249957 L2.80268449,5.50004297 C2.80268449,3.98410547 4.04097768,2.75008594 5.56216518,2.75008594 L38.6764509,2.75008594 C40.1976384,2.75008594 41.4360609,3.98410547 41.4360609,5.50004297 L41.4360609,18.8240508 L22.0128508,25.5987187 C21.8053691,25.1007539 21.3147344,24.7501289 20.739503,24.7501289 C19.9768396,24.7501289 19.359698,25.3651406 19.359698,26.1251719 L19.359698,31.6252148 C19.359698,32.3852461 19.9768396,33.0002578 20.739503,33.0002578 C21.3147344,33.0002578 21.8053691,32.6496328 22.0128508,32.151668 L26.3192602,33.6536836 C26.2896384,33.8966719 26.2585937,34.139918 26.2585937,34.3753008 C26.2585937,38.1656602 29.3536153,41.25 33.1573602,41.25 C35.5565936,41.25 37.7059177,40.026293 38.9540417,38.0604727 L41.4360609,38.9260781 L41.4360609,52.249957 L41.4360609,52.249957 Z M29.0412286,34.6029492 L36.2160336,37.1054062 C35.4492309,37.9670156 34.362151,38.500043 33.1573602,38.500043 C30.9531905,38.500043 29.162432,36.7696055 29.0412286,34.6029492 Z M46.9550223,37.9373672 L22.119308,29.2739648 L22.119308,28.4760352 L46.9550223,19.8126328 L46.9550223,37.9373672 Z" id="Shape" fill="#0352BF"></path>
                <path d="M59.3728795,27.499957 L53.8537887,27.499957 C53.0911253,27.499957 52.4739837,28.1149687 52.4739837,28.875 C52.4739837,29.6350312 53.0911253,30.250043 53.8537887,30.250043 L59.3728795,30.250043 C60.1355429,30.250043 60.7526845,29.6350312 60.7526845,28.875 C60.7526845,28.1149687 60.1355429,27.499957 59.3728795,27.499957 Z" id="Path" fill="#FFC718"></path>
                <path d="M53.8537887,22.000043 C54.2067922,22.000043 54.5597956,21.8657227 54.8293666,21.5972109 L58.9686523,17.4722109 C59.507665,16.9350586 59.507665,16.0649414 58.9686523,15.527918 C58.4296397,14.9907656 57.5565092,14.9907656 57.0176259,15.527918 L52.8783402,19.652918 C52.3393276,20.1900703 52.3393276,21.0601875 52.8783402,21.5972109 C53.1477818,21.8657227 53.5007853,22.000043 53.8537887,22.000043 Z" id="Path" fill="#FFC718"></path>
                <path d="M54.8293666,36.1527891 C54.290354,35.6156367 53.4172234,35.6156367 52.8783402,36.1527891 C52.3393276,36.6899414 52.3393276,37.5600586 52.8783402,38.097082 L57.0176259,42.222082 C57.2870675,42.4905938 57.6402003,42.6249141 57.9932038,42.6249141 C58.3462073,42.6249141 58.6992107,42.4905938 58.9687817,42.222082 C59.5077943,41.6849297 59.5077943,40.8148125 58.9687817,40.2777891 L54.8293666,36.1527891 Z" id="Path" fill="#FFC718"></path>
                <path d="M20.6439589,37.4143919 C20.6351867,36.9515141 20.6268132,36.5142406 20.6268132,36.0912095 C20.6268132,35.7597938 20.3591011,35.4911086 20.0287075,35.4911086 C17.4708088,35.4911086 15.5232969,33.8851236 13.8999582,32.3014975 C13.6677337,32.0748994 13.2981841,32.0749794 13.0660394,32.3014975 C11.4428603,33.8851236 9.49566734,35.4911086 6.93792811,35.4911086 C6.60761427,35.4911086 6.33982241,35.7597938 6.33982241,36.0912095 C6.33982241,36.5143206 6.33152868,36.9517541 6.32267671,37.4147119 C6.24069636,41.7223158 6.12841198,46.7533662 13.2870993,49.2429846 C13.3505782,49.2650683 13.4167686,49.2761102 13.4829589,49.2761102 C13.5491493,49.2761102 13.6154194,49.2650683 13.6788186,49.2429846 C20.8380641,46.7532862 20.7259392,41.7220758 20.6439589,37.4143919 Z M13.5168175,46.8947368 C8.67945449,45.146424 8.75334925,41.9308427 8.74194672,38.1086869 C8.74137685,37.8843144 8.75045316,37.667124 8.75334925,37.4540747 C10.824746,37.3665354 12.4869526,36.5187952 13.5168175,35.0337245 C14.7976195,36.5960683 16.3485765,37.3666044 18.4201111,37.4540747 C18.4230072,37.667055 18.4225265,37.8844573 18.4314197,38.1083417 C18.5818934,41.89651 18.2841846,44.7091396 13.5168175,46.8947368 Z" id="Shape" fill="#FFC718"></path>
            </g>
        </g>
    </g>
</svg>