<svg xmlns="http://www.w3.org/2000/svg" width="66" height="66" viewBox="0 0 66 66">
    <g fill="none" fill-rule="nonzero">
        <path fill="#0352BF" d="M65.843 46.774l-6.6-10.978a1.1 1.1 0 0 0-.943-.532H55V1.234c0-.472-.303-.891-.752-1.04-.45-.15-42.047-.15-42.496 0-.449.149-.752.568-.752 1.04v34.03H7.7c-.383.004-.736.21-.927.542l-.016-.01-6.6 10.978a1.096 1.096 0 0 0 .943 1.663h5.5v16.465C6.6 65.51 7.092 66 7.7 66h50.6c.608 0 1.1-.491 1.1-1.098V48.437h5.5a1.096 1.096 0 1 0 .943-1.663zM13.2 2.607h39.6v32.657H13.2V2.607zM3.043 46.241L6.6 40.324v5.917H3.043zM26.4 63.805H8.8V37.459h17.6v26.346zm30.8 0H28.6v-23.48l4.557 7.58a1.1 1.1 0 0 0 .943.532h23.1v15.368zM34.723 46.24l-5.28-8.782h28.234l5.28 8.782H34.723z"/>
        <path fill="#FFC718" d="M50.6 59.414H55v2.195h-4.4zM46.2 59.414h2.2v2.195h-2.2zM17.6 26.482h22v2.196h-22zM41.8 26.482h6.6v2.196h-6.6zM17.6 30.873h22v2.196h-22zM41.8 30.873h6.6v2.196h-6.6zM17.6 17.015h22v2.195h-22zM41.8 17.015h6.6v2.195h-6.6zM17.6 21.405h22v2.196h-22zM41.8 21.405h6.6v2.196h-6.6zM35.2 11.663h13.2v2.196H35.2zM35.2 7.272h2.2v2.196h-2.2zM39.6 7.272h8.8v2.196h-8.8z"/>
    </g>
</svg>
