<svg xmlns="http://www.w3.org/2000/svg" width="62" height="66" viewBox="0 0 62 66">
    <g fill="none" fill-rule="nonzero">
        <path fill="#0352BF" d="M57.571 17.6v-3.3c0-.607-.495-1.1-1.107-1.1H54.25V9.9h5.536c.611 0 1.107-.493 1.107-1.1V4.4c0-2.43-1.983-4.4-4.429-4.4H21.036c-2.446 0-4.429 1.97-4.429 4.4v7.7h-15.5C.496 12.1 0 12.593 0 13.2v51.7c0 .607.496 1.1 1.107 1.1h39.857c.612 0 1.107-.493 1.107-1.1V48.4h6.643v7.7c.003.132.029.262.078.384h-.008l3.321 8.8a1.11 1.11 0 0 0 2.075 0l3.322-8.8h-.008c.049-.122.075-.252.077-.384V19.8c1.223 0 2.215.985 2.215 2.2v14.3H62V22c0-2.43-1.983-4.4-4.429-4.4zM54.25 4.4c0-1.215.991-2.2 2.214-2.2 1.223 0 2.215.985 2.215 2.2v3.3H54.25V4.4zM39.857 63.8H2.214V14.3h37.643v49.5zm8.857-49.5v31.9h-6.643v-33c0-.607-.495-1.1-1.107-1.1H18.821V4.4c0-1.215.992-2.2 2.215-2.2H52.65a4.334 4.334 0 0 0-.615 2.2v8.8H49.82c-.611 0-1.107.493-1.107 1.1zm4.429 47.467L51.419 57.2h3.448l-1.724 4.567zM55.357 55H50.93V24.2h4.428V55zm0-33H50.93v-2.2h4.428V22zm0-4.4H50.93v-2.2h4.428v2.2z"/>
        <path fill="#FFC718" d="M35.429 17.6H6.643c-.612 0-1.107.493-1.107 1.1v6.6c0 .607.495 1.1 1.107 1.1h28.786c.611 0 1.107-.493 1.107-1.1v-6.6c0-.607-.496-1.1-1.107-1.1zm-1.108 6.6H7.75v-4.4h26.571v4.4zM13.286 29.7H6.643c-.612 0-1.107.493-1.107 1.1v6.6c0 .607.495 1.1 1.107 1.1h6.643c.611 0 1.107-.493 1.107-1.1v-6.6c0-.607-.496-1.1-1.107-1.1zm-1.107 6.6H7.75v-4.4h4.429v4.4zM24.357 29.7h-6.643c-.611 0-1.107.493-1.107 1.1v6.6c0 .607.496 1.1 1.107 1.1h6.643c.612 0 1.107-.493 1.107-1.1v-6.6c0-.607-.495-1.1-1.107-1.1zm-1.107 6.6h-4.429v-4.4h4.429v4.4zM35.429 29.7h-6.643c-.612 0-1.107.493-1.107 1.1v6.6c0 .607.495 1.1 1.107 1.1h6.643c.611 0 1.107-.493 1.107-1.1v-6.6c0-.607-.496-1.1-1.107-1.1zm-1.108 6.6h-4.428v-4.4h4.428v4.4zM13.286 40.7H6.643c-.612 0-1.107.493-1.107 1.1v6.6c0 .607.495 1.1 1.107 1.1h6.643c.611 0 1.107-.493 1.107-1.1v-6.6c0-.607-.496-1.1-1.107-1.1zm-1.107 6.6H7.75v-4.4h4.429v4.4zM24.357 40.7h-6.643c-.611 0-1.107.493-1.107 1.1v6.6c0 .607.496 1.1 1.107 1.1h6.643c.612 0 1.107-.493 1.107-1.1v-6.6c0-.607-.495-1.1-1.107-1.1zm-1.107 6.6h-4.429v-4.4h4.429v4.4zM13.286 51.7H6.643c-.612 0-1.107.493-1.107 1.1v6.6c0 .607.495 1.1 1.107 1.1h6.643c.611 0 1.107-.493 1.107-1.1v-6.6c0-.607-.496-1.1-1.107-1.1zm-1.107 6.6H7.75v-4.4h4.429v4.4zM24.357 51.7h-6.643c-.611 0-1.107.493-1.107 1.1v6.6c0 .607.496 1.1 1.107 1.1h6.643c.612 0 1.107-.493 1.107-1.1v-6.6c0-.607-.495-1.1-1.107-1.1zm-1.107 6.6h-4.429v-4.4h4.429v4.4zM35.429 40.7h-6.643c-.612 0-1.107.493-1.107 1.1v17.6c0 .607.495 1.1 1.107 1.1h6.643c.611 0 1.107-.493 1.107-1.1V41.8c0-.607-.496-1.1-1.107-1.1zM34.32 58.3h-4.428V42.9h4.428v15.4z"/>
    </g>
</svg>
