<svg xmlns="http://www.w3.org/2000/svg" width="69" height="70" viewBox="0 0 69 70">
    <g fill="none" fill-rule="nonzero">
        <path fill="#FFC718" d="M63.392 26.25a1.094 1.094 0 0 1-.772-1.867l4.047-4.055V7.656h-3.275a1.092 1.092 0 1 1 0-2.188h4.367c.603 0 1.092.491 1.092 1.095V20.78c0 .29-.115.57-.32.774l-4.368 4.375c-.213.213-.492.32-.771.32z"/>
        <path fill="#0352BF" d="M59.025 66.719H20.813a1.091 1.091 0 0 1-1.092-1.094c0-.605.488-1.094 1.092-1.094h38.212c.603 0 1.091.49 1.091 1.094 0 .605-.488 1.094-1.091 1.094z"/>
        <path fill="#0352BF" d="M59.025 66.719a1.091 1.091 0 0 1-1.092-1.094v-3.281a1.091 1.091 0 1 1 2.183 0v3.281c0 .605-.488 1.094-1.091 1.094zM20.813 66.719a1.091 1.091 0 0 1-1.092-1.094v-3.281a1.091 1.091 0 1 1 2.183 0v3.281c0 .605-.488 1.094-1.091 1.094z"/>
        <path fill="#FFC718" d="M16.445 22.969H8.803c-.604 0-1.092-.49-1.092-1.094 0-.603.488-1.094 1.092-1.094h7.642a1.093 1.093 0 0 1 0 2.188zM16.445 29.531H8.803a1.092 1.092 0 1 1 0-2.188h7.642a1.093 1.093 0 0 1 0 2.188zM16.445 36.094H8.803c-.604 0-1.092-.49-1.092-1.094 0-.603.488-1.094 1.092-1.094h7.642a1.093 1.093 0 0 1 0 2.188zM16.445 42.656H8.803a1.091 1.091 0 0 1-1.092-1.093c0-.605.488-1.094 1.092-1.094h7.642c.604 0 1.092.489 1.092 1.094 0 .605-.488 1.093-1.092 1.093z"/>
        <path fill="#0352BF" d="M50.282 18.614h-19.65a1.093 1.093 0 0 1 0-2.188h19.65c.604 0 1.092.49 1.092 1.094 0 .603-.488 1.094-1.092 1.094z"/>
        <path fill="#0352BF" d="M40.459 40.493a1.092 1.092 0 0 1-1.092-1.094V14.24a1.092 1.092 0 1 1 2.183 0V39.4c0 .604-.487 1.093-1.091 1.093z"/>
        <path fill="#0352BF" d="M49.193 40.493H31.724a1.092 1.092 0 0 1-1.091-1.094c0-.604.488-1.094 1.091-1.094h17.469c.604 0 1.092.49 1.092 1.094 0 .605-.488 1.094-1.092 1.094z"/>
        <path fill="#FFC718" d="M53.564 48.146H27.353c-.603 0-1.092-.49-1.092-1.094 0-.605.489-1.093 1.092-1.093h26.211c.604 0 1.092.488 1.092 1.093s-.488 1.094-1.092 1.094zM47.014 51.426H33.906c-.604 0-1.092-.489-1.092-1.094 0-.605.488-1.093 1.092-1.093h13.108c.604 0 1.091.488 1.091 1.093s-.487 1.094-1.091 1.094z"/>
        <path fill="#0352BF" d="M30.633 31.74a4.375 4.375 0 0 1-4.367-4.374 1.092 1.092 0 1 1 2.183 0c0 1.206.98 2.187 2.184 2.187a2.188 2.188 0 0 0 2.183-2.187 1.092 1.092 0 1 1 2.184 0 4.376 4.376 0 0 1-4.367 4.375z"/>
        <path fill="#0352BF" d="M33.908 28.46h-6.55a1.093 1.093 0 0 1 0-2.188h6.55c.604 0 1.092.49 1.092 1.094 0 .603-.488 1.094-1.092 1.094z"/>
        <path fill="#0352BF" d="M27.357 28.46a1.094 1.094 0 0 1-1.035-1.44l3.276-9.847c.19-.572.803-.885 1.38-.691.572.191.882.81.691 1.383l-3.275 9.846a1.094 1.094 0 0 1-1.037.749z"/>
        <path fill="#0352BF" d="M33.908 28.46a1.09 1.09 0 0 1-1.035-.749l-3.275-9.846a1.094 1.094 0 0 1 .69-1.383 1.09 1.09 0 0 1 1.381.691l3.275 9.846a1.093 1.093 0 0 1-1.036 1.44zM50.282 31.74a4.375 4.375 0 0 1-4.367-4.374 1.092 1.092 0 1 1 2.184 0c0 1.206.98 2.187 2.183 2.187a2.188 2.188 0 0 0 2.184-2.187 1.092 1.092 0 1 1 2.184 0 4.376 4.376 0 0 1-4.368 4.375z"/>
        <path fill="#0352BF" d="M53.558 28.46h-6.55a1.093 1.093 0 0 1 0-2.188h6.55c.604 0 1.092.49 1.092 1.094 0 .603-.488 1.094-1.092 1.094z"/>
        <path fill="#0352BF" d="M47.007 28.46a1.094 1.094 0 0 1-1.035-1.44l3.276-9.847c.19-.572.802-.885 1.38-.691.571.191.882.81.69 1.383l-3.275 9.846a1.094 1.094 0 0 1-1.036.749z"/>
        <path fill="#0352BF" d="M53.558 28.46a1.09 1.09 0 0 1-1.035-.749l-3.275-9.846a1.094 1.094 0 0 1 .69-1.383 1.09 1.09 0 0 1 1.38.691l3.276 9.846a1.093 1.093 0 0 1-1.036 1.44zM19.72 70a4.375 4.375 0 0 1 0-8.75c.604 0 1.093.489 1.093 1.094 0 .605-.489 1.094-1.092 1.094a2.188 2.188 0 0 0 0 4.375c.603 0 1.092.488 1.092 1.094 0 .605-.489 1.093-1.092 1.093z"/>
        <path fill="#0352BF" d="M60.116 63.438H19.721a1.091 1.091 0 0 1-1.092-1.094c0-.605.488-1.094 1.092-1.094h40.395c.604 0 1.092.489 1.092 1.094 0 .605-.488 1.094-1.092 1.094zM60.116 70H19.721a1.091 1.091 0 0 1-1.092-1.093c0-.606.488-1.094 1.092-1.094h40.395c.604 0 1.092.488 1.092 1.094 0 .605-.488 1.093-1.092 1.093z"/>
        <path fill="#0352BF" d="M60.116 63.438a1.091 1.091 0 0 1-1.091-1.094c0-.605.487-1.094 1.091-1.094a2.188 2.188 0 0 0 2.184-2.187 1.091 1.091 0 1 1 2.184 0 4.376 4.376 0 0 1-4.368 4.375zM63.392 5.469c-.604 0-1.092-.49-1.092-1.094 0-1.206-.98-2.187-2.184-2.187-.604 0-1.091-.49-1.091-1.094C59.025.49 59.512 0 60.116 0a4.376 4.376 0 0 1 4.368 4.375c0 .604-.489 1.094-1.092 1.094zM16.445 5.469c-.604 0-1.091-.49-1.091-1.094A4.375 4.375 0 0 1 19.72 0a1.093 1.093 0 0 1 0 2.188 2.188 2.188 0 0 0-2.184 2.187c0 .604-.488 1.094-1.092 1.094zM60.116 70a1.091 1.091 0 0 1-1.091-1.093c0-.606.487-1.094 1.091-1.094a2.188 2.188 0 0 0 2.184-2.188 1.091 1.091 0 1 1 2.184 0A4.376 4.376 0 0 1 60.116 70z"/>
        <path fill="#0352BF" d="M60.116 2.188H19.721c-.604 0-1.092-.49-1.092-1.094C18.629.49 19.117 0 19.721 0h40.395a1.093 1.093 0 0 1 0 2.188zM16.445 66.719a1.091 1.091 0 0 1-1.091-1.094V4.375a1.092 1.092 0 1 1 2.183 0v61.25c0 .605-.488 1.094-1.092 1.094zM63.392 66.719a1.091 1.091 0 0 1-1.092-1.094V4.375a1.092 1.092 0 1 1 2.184 0v61.25c0 .605-.489 1.094-1.092 1.094z"/>
        <path fill="#0352BF" d="M16.444 7.656H1.16a1.092 1.092 0 1 1 0-2.188h15.283c.604 0 1.092.491 1.092 1.095 0 .603-.488 1.093-1.092 1.093zM16.444 62.344H6.619a1.091 1.091 0 0 1-1.091-1.094c0-.605.487-1.094 1.091-1.094h9.825c.604 0 1.092.49 1.092 1.094 0 .605-.488 1.094-1.092 1.094z"/>
        <path fill="#0352BF" d="M1.16 56.875A1.091 1.091 0 0 1 .07 55.781V6.563a1.092 1.092 0 1 1 2.183 0V55.78c0 .606-.488 1.094-1.091 1.094z"/>
        <path fill="#0352BF" d="M6.62 62.344c-.28 0-.56-.107-.772-.32l-5.46-5.47a1.094 1.094 0 0 1 0-1.546 1.088 1.088 0 0 1 1.544 0l5.459 5.469a1.094 1.094 0 0 1-.772 1.867z"/>
        <path fill="#0352BF" d="M6.62 62.344a1.091 1.091 0 0 1-1.092-1.094v-5.469a1.091 1.091 0 1 1 2.183 0v5.47c0 .604-.488 1.093-1.092 1.093z"/>
        <path fill="#0352BF" d="M6.62 56.875H1.16A1.091 1.091 0 0 1 .07 55.781c0-.605.488-1.093 1.092-1.093h5.458c.604 0 1.092.488 1.092 1.093 0 .606-.488 1.094-1.092 1.094z"/>
    </g>
</svg>
