<svg xmlns="http://www.w3.org/2000/svg" width="50" height="66" viewBox="0 0 50 66">
    <g fill="none" fill-rule="nonzero">
        <path fill="#FFC718" d="M22.472 40.332c.268.27.633.42 1.013.416.38.004.746-.146 1.015-.416l6.872-6.902a1.436 1.436 0 0 0 0-2.023 1.421 1.421 0 0 0-2.015 0L23.5 37.29l-2.843-2.884a1.42 1.42 0 0 0-2.014-.014 1.435 1.435 0 0 0-.015 2.023l3.844 3.917z"/>
        <path fill="#0352BF" d="M45.7 10.043h-7a5.96 5.96 0 0 0-5.786-4.59h-1.3C31.343 2.438 28.8 0 25.714 0h-1.371c-3.086 0-5.629 2.44-5.9 5.452h-1.3a5.961 5.961 0 0 0-5.786 4.591H4.286C1.943 10.043 0 12.038 0 14.405v47.276c.012 2.38 1.93 4.307 4.3 4.319h41.4c2.37-.012 4.288-1.939 4.3-4.319V14.405c0-2.367-1.943-4.362-4.3-4.362zM24.357 2.87h1.372a3.1 3.1 0 0 1 3.014 2.582h-7.4a3.1 3.1 0 0 1 3.014-2.582zm-10.214 8.522a3.046 3.046 0 0 1 .87-2.166 3.02 3.02 0 0 1 2.144-.904h15.757A3.082 3.082 0 0 1 36 11.392v4.678H14.143v-4.678zm23.271 7.547c.786 0 1.443-.588 1.443-1.377v-.345h1.714V56.53H9.43V17.217h1.857v.345c-.01.368.131.724.39.984.26.26.615.403.981.393h24.757zm9.729 42.742a1.46 1.46 0 0 1-1.443 1.45H4.3a1.46 1.46 0 0 1-1.443-1.45V14.405A1.498 1.498 0 0 1 4.3 12.913h6.986v1.435H7.957a1.405 1.405 0 0 0-.993.435 1.42 1.42 0 0 0-.393 1.014v42.197c-.007.373.136.732.397.997.261.266.618.413.989.409h34.071c.372.004.729-.143.99-.409.26-.265.404-.624.396-.997V15.797a1.415 1.415 0 0 0-1.386-1.45h-3.17v-1.434H45.7a1.498 1.498 0 0 1 1.443 1.492v47.276z"/>
        <path fill="#FFC718" d="M15.1 53.66h19.786c.789 0 1.428-.641 1.428-1.434 0-.792-.64-1.435-1.428-1.435H15.1c-.79 0-1.429.643-1.429 1.435 0 .793.64 1.435 1.429 1.435z"/>
    </g>
</svg>
