<svg xmlns="http://www.w3.org/2000/svg" width="34" height="66" viewBox="0 0 34 66">
    <g fill="none" fill-rule="nonzero">
        <path fill="#0352BF" d="M30.813 13.839h-4.25V1.065C26.563.477 26.087 0 25.5 0h-17c-.587 0-1.063.477-1.063 1.065v12.774h-4.25A3.2 3.2 0 0 0 0 17.032v45.774A3.2 3.2 0 0 0 3.188 66h27.625A3.2 3.2 0 0 0 34 62.806V17.032a3.2 3.2 0 0 0-3.188-3.193zM9.563 2.129h14.874v18.097H9.563V2.129zM8.5 22.355h17c.587 0 1.063-.477 1.063-1.065v-2.129h1.062v4.258H6.375v-4.258h1.063v2.13c0 .587.475 1.064 1.062 1.064zm23.375 40.451c0 .588-.476 1.065-1.063 1.065H3.188a1.064 1.064 0 0 1-1.062-1.065V17.032c0-.588.476-1.064 1.063-1.064h4.25v1.064H5.313c-.587 0-1.063.477-1.063 1.065v6.387c0 .588.476 1.064 1.063 1.064h23.375c.586 0 1.062-.476 1.062-1.064v-6.387c0-.588-.476-1.065-1.063-1.065h-2.125v-1.064h4.25c.587 0 1.063.476 1.063 1.064v45.774z"/>
        <path fill="#FFC718" d="M28.688 26.613H5.313c-.587 0-1.063.477-1.063 1.064v12.775c0 .587.476 1.064 1.063 1.064h23.375c.586 0 1.062-.477 1.062-1.064V27.677c0-.587-.476-1.064-1.063-1.064zm-1.063 12.774H6.375V28.742h21.25v10.645zM6.375 48.968h4.25c.587 0 1.063-.477 1.063-1.065v-4.258c0-.588-.476-1.064-1.063-1.064h-4.25c-.587 0-1.063.476-1.063 1.064v4.258c0 .588.476 1.065 1.063 1.065zm1.063-4.258h2.125v2.129H7.437v-2.13zM14.875 48.968h4.25c.587 0 1.063-.477 1.063-1.065v-4.258c0-.588-.476-1.064-1.063-1.064h-4.25c-.587 0-1.063.476-1.063 1.064v4.258c0 .588.476 1.065 1.063 1.065zm1.063-4.258h2.124v2.129h-2.125v-2.13zM27.625 42.58h-4.25c-.587 0-1.063.477-1.063 1.065v4.258c0 .588.476 1.065 1.063 1.065h4.25c.587 0 1.063-.477 1.063-1.065v-4.258c0-.588-.476-1.064-1.063-1.064zm-1.063 4.259h-2.125v-2.13h2.125v2.13zM5.313 55.355c0 .588.475 1.064 1.062 1.064h4.25c.587 0 1.063-.476 1.063-1.064v-4.258c0-.588-.476-1.065-1.063-1.065h-4.25c-.587 0-1.063.477-1.063 1.065v4.258zm2.125-3.194h2.125v2.13H7.437v-2.13zM20.188 51.097c0-.588-.476-1.065-1.063-1.065h-4.25c-.587 0-1.063.477-1.063 1.065v4.258c0 .588.476 1.064 1.063 1.064h4.25c.587 0 1.063-.476 1.063-1.064v-4.258zm-2.125 3.193h-2.125v-2.129h2.124v2.13zM27.625 50.032h-4.25c-.587 0-1.063.477-1.063 1.065v4.258c0 .588.476 1.064 1.063 1.064h4.25c.587 0 1.063-.476 1.063-1.064v-4.258c0-.588-.476-1.065-1.063-1.065zm-1.063 4.258h-2.125v-2.129h2.125v2.13zM18.063 59.613H5.313a1.064 1.064 0 0 0 0 2.129h12.75a1.064 1.064 0 0 0 0-2.13zM23.375 59.613H21.25a1.064 1.064 0 0 0 0 2.129h2.125a1.064 1.064 0 0 0 0-2.13z"/>
    </g>
</svg>
