<svg xmlns="http://www.w3.org/2000/svg" width="70" height="70" viewBox="0 0 70 70">
    <g fill="none" fill-rule="nonzero">
        <path fill="#FFC718" d="M48.548 18.065H21.452a2.26 2.26 0 0 0-2.258 2.258v6.774c0 .832.457 1.552 1.129 1.944v2.886a2.251 2.251 0 0 0-1.13 1.944v6.774c0 .832.458 1.553 1.13 1.945v2.885a2.251 2.251 0 0 0-1.13 1.944v6.775c0 .831.458 1.552 1.13 1.944v2.885a2.251 2.251 0 0 0-1.13 1.945v6.774A2.26 2.26 0 0 0 21.453 70h27.096a2.26 2.26 0 0 0 2.258-2.258v-6.774c0-.832-.457-1.553-1.129-1.945v-2.885a2.251 2.251 0 0 0 1.13-1.944v-6.775c0-.832-.458-1.552-1.13-1.944V42.59a2.251 2.251 0 0 0 1.13-1.945v-6.774c0-.832-.458-1.552-1.13-1.944V29.04a2.251 2.251 0 0 0 1.13-1.944v-6.774a2.26 2.26 0 0 0-2.259-2.258zm-27.096 2.258h27.096l.001 6.774H21.452v-6.774zM22.58 58.71v-2.258h24.838v2.258H22.581zm-1.13-4.516v-6.775h27.097l.001 6.775H21.452zm1.13-9.033v-2.258h24.838v2.258H22.581zm-1.13-4.516v-6.774h27.097l.001 6.774H21.452zm1.13-9.032v-2.258h24.838v2.258H22.581zm-1.13 36.129v-6.774h27.097l.001 6.774H21.452z"/>
        <path fill="#0352BF" d="M10.161 51.935h2.258v2.259h-2.258zM10.161 56.452h2.258v2.258h-2.258zM57.58 51.935h2.259v2.259H57.58z"/>
        <path fill="#0352BF" d="M59.839 45.161h3.595a3.383 3.383 0 0 0 3.179 2.258A3.392 3.392 0 0 0 70 44.032a3.392 3.392 0 0 0-3.387-3.387c-1.47 0-2.712.947-3.18 2.258H59.84v-9.032h1.129c4.98 0 9.032-4.052 9.032-9.032 0-4.205-2.891-7.736-6.788-8.74.003-.097.014-.193.014-.293 0-7.47-6.078-13.548-13.549-13.548-3.9 0-7.591 1.694-10.148 4.585C36.409 2.68 31.445 0 25.968 0 17.01 0 9.673 6.996 9.09 15.81c-.02-.001-.038-.004-.058-.004C4.052 15.806 0 19.858 0 24.84c0 4.98 4.052 9.032 9.032 9.032h1.13v9.032H6.565a3.383 3.383 0 0 0-3.179-2.258A3.392 3.392 0 0 0 0 44.032a3.392 3.392 0 0 0 3.387 3.387c1.47 0 2.712-.947 3.18-2.258h3.594v4.516h2.258v-10.16h2.258v25.967H12.42v-4.516h-2.258v4.516H6.566a3.383 3.383 0 0 0-3.179-2.258A3.392 3.392 0 0 0 0 66.613 3.392 3.392 0 0 0 3.387 70c1.47 0 2.712-.947 3.18-2.258h8.11V70h2.258V29.355h-2.258v7.903H12.42v-5.645H9.032a6.78 6.78 0 0 1-6.774-6.774 6.78 6.78 0 0 1 6.774-6.774c1.836 0 3.554.722 4.84 2.033l1.613-1.58a8.949 8.949 0 0 0-4.153-2.407c.431-7.709 6.82-13.853 14.636-13.853 7.256 0 13.502 5.408 14.53 12.58l2.234-.32a16.72 16.72 0 0 0-1.906-5.688c2.136-2.703 5.391-4.314 8.851-4.314 6.226 0 11.29 5.065 11.29 11.29-2.447 0-4.74.964-6.452 2.712l1.614 1.58a6.727 6.727 0 0 1 4.839-2.033 6.78 6.78 0 0 1 6.774 6.774 6.78 6.78 0 0 1-6.774 6.774H57.58v5.645h-2.258v-7.903h-2.258V70h2.258v-2.258h8.11A3.383 3.383 0 0 0 66.614 70 3.392 3.392 0 0 0 70 66.613a3.392 3.392 0 0 0-3.387-3.387c-1.47 0-2.712.947-3.18 2.258H59.84v-4.516H57.58v4.516h-2.258V39.516h2.258v10.161h2.258v-4.516zm6.774-2.258a1.13 1.13 0 0 1 1.129 1.13 1.13 1.13 0 0 1-1.13 1.128 1.13 1.13 0 0 1-1.128-1.129 1.13 1.13 0 0 1 1.129-1.129zM3.387 45.161a1.13 1.13 0 0 1-1.129-1.129 1.13 1.13 0 0 1 1.13-1.129 1.13 1.13 0 0 1 1.128 1.13 1.13 1.13 0 0 1-1.129 1.128zm0 22.58a1.13 1.13 0 0 1-1.129-1.128 1.13 1.13 0 0 1 1.13-1.13 1.13 1.13 0 0 1 1.128 1.13 1.13 1.13 0 0 1-1.129 1.129zm63.226-2.257a1.13 1.13 0 0 1 1.129 1.129 1.13 1.13 0 0 1-1.13 1.129 1.13 1.13 0 0 1-1.128-1.13 1.13 1.13 0 0 1 1.129-1.128z"/>
        <path fill="#0352BF" d="M57.58 56.452h2.259v2.258H57.58zM23.71 22.58h2.258v2.259H23.71zM28.226 22.58h2.258v2.259h-2.258zM39.516 36.129h2.258v2.258h-2.258zM44.032 36.129h2.258v2.258h-2.258zM22.58 49.677h2.259v2.258H22.58zM27.097 49.677h2.258v2.258h-2.258zM39.516 63.226h2.258v2.258h-2.258zM44.032 63.226h2.258v2.258h-2.258z"/>
    </g>
</svg>
