<svg xmlns="http://www.w3.org/2000/svg" width="70" height="70" viewBox="0 0 70 70">
    <g fill="none" fill-rule="nonzero">
        <path fill="#FFC718" d="M39.516 58.71h-9.032a2.26 2.26 0 0 0-2.258 2.258v2.258a2.26 2.26 0 0 0 2.258 2.258h9.032a2.26 2.26 0 0 0 2.258-2.258v-2.258a2.26 2.26 0 0 0-2.258-2.258zm-9.032 4.516v-2.258h9.032l.001 2.258h-9.033zM29.355 4.516h2.258v2.258h-2.258zM33.871 4.516h6.774v2.258h-6.774z"/>
        <path fill="#0352BF" d="M66.613 16.935h-6.774V5.645A5.652 5.652 0 0 0 54.194 0H15.806a5.652 5.652 0 0 0-5.645 5.645v17.597l-2.725 2.726H3.387A3.391 3.391 0 0 0 0 29.355v9.032a3.391 3.391 0 0 0 3.387 3.387h6.774v22.58A5.652 5.652 0 0 0 15.806 70h38.388a5.652 5.652 0 0 0 5.645-5.645V35.467l2.725-2.725h4.049A3.391 3.391 0 0 0 70 29.355v-9.032a3.391 3.391 0 0 0-3.387-3.388zM15.806 2.258h38.388a3.391 3.391 0 0 1 3.387 3.387v11.29h-2.258V11.29a2.26 2.26 0 0 0-2.258-2.258h-36.13a2.26 2.26 0 0 0-2.258 2.258v10.407a3.498 3.498 0 0 0-1.265-.245c-.343 0-.673.064-.993.158V5.645a3.391 3.391 0 0 1 3.387-3.387zm36.13 30.484h1.129v21.452h-2.259v-6.116a7.92 7.92 0 0 0-4.516-7.134V24.84c0-6.226-5.065-11.29-11.29-11.29-6.225 0-11.29 5.064-11.29 11.29v16.105a7.92 7.92 0 0 0-4.516 7.134v6.116h-2.259v-12.42h1.13a3.391 3.391 0 0 0 3.387-3.387v-9.032a3.391 3.391 0 0 0-3.387-3.387h-1.13V11.29h36.13v5.645h-1.13a3.391 3.391 0 0 0-3.387 3.388v9.032a3.391 3.391 0 0 0 3.387 3.387zm-13.814 12.42h-6.244l-1.22-3.907.718-.195a3.392 3.392 0 0 0 2.454-2.781c.38.066.77.108 1.17.108.4 0 .79-.042 1.17-.108a3.392 3.392 0 0 0 2.454 2.78l.718.196-1.22 3.906zm-9.896-13.55a2.26 2.26 0 0 1-2.258-2.257 2.26 2.26 0 0 1 2.258-2.258v4.516zm0 2.259h.395a6.8 6.8 0 0 0 2.992 3.6v.32c0 .508-.342.956-.832 1.09l-4.813 1.313v-6.95a4.47 4.47 0 0 0 2.258.627zM35 36.129a4.52 4.52 0 0 1-4.516-4.516V27a6.528 6.528 0 0 0 3.437-1.746 8.77 8.77 0 0 0 5.402 1.842h.193v4.516A4.52 4.52 0 0 1 35 36.129zm4.22 2.753a1.132 1.132 0 0 1-.833-1.09v-.32a6.804 6.804 0 0 0 2.992-3.6h.395c.827 0 1.591-.24 2.258-.628v6.95l-4.813-1.312zm2.554-11.785a2.26 2.26 0 0 1 2.258 2.258 2.26 2.26 0 0 1-2.258 2.258v-4.516zm2.258-1.63a4.47 4.47 0 0 0-2.258-.628h-2.451a6.538 6.538 0 0 1-4.654-1.928l-.798-.798-1.46 1.46a4.295 4.295 0 0 1-3.056 1.266h-1.13c-.826 0-1.59.24-2.257.627v-.627c0-4.98 4.052-9.033 9.032-9.033s9.032 4.053 9.032 9.033v.627zM25.612 42.63l2.867-.781 3.856 12.344H21.452v-6.116c0-2.54 1.71-4.778 4.16-5.447zm9.089 11.563l-2.117-6.775h4.832L35.3 54.194h-.598zm6.821-12.344l2.867.781a5.658 5.658 0 0 1 4.16 5.447v6.116H37.664l3.857-12.344zM2.258 38.387v-9.032a1.13 1.13 0 0 1 1.13-1.13H8.37l4.145-4.145a1.267 1.267 0 0 1 2.161.895v3.251h3.388a1.13 1.13 0 0 1 1.129 1.129v9.032a1.13 1.13 0 0 1-1.13 1.13H3.388a1.13 1.13 0 0 1-1.129-1.13zm51.936 29.355H15.806a3.391 3.391 0 0 1-3.387-3.387v-22.58h2.258v12.419a2.26 2.26 0 0 0 2.258 2.258h36.13a2.26 2.26 0 0 0 2.258-2.258v-17.18c.394.151.818.244 1.265.244.343 0 .673-.064.993-.158v27.255a3.391 3.391 0 0 1-3.387 3.387zm13.548-38.387a1.13 1.13 0 0 1-1.13 1.129H61.63l-4.145 4.146a1.267 1.267 0 0 1-2.161-.895v-3.252h-3.388a1.13 1.13 0 0 1-1.129-1.128v-9.032a1.13 1.13 0 0 1 1.13-1.13h14.677a1.13 1.13 0 0 1 1.129 1.13v9.032z"/>
        <path fill="#FFC718" d="M53.065 21.452h12.419v2.258h-12.42zM63.226 25.968h2.258v2.258h-2.258zM53.065 25.968h7.903v2.258h-7.903zM4.516 35h7.903v2.258H4.516zM14.677 35h2.258v2.258h-2.258zM4.516 30.484h12.42v2.258H4.515z"/>
    </g>
</svg>
