<svg xmlns="http://www.w3.org/2000/svg" width="53" height="70" viewBox="0 0 53 70">
    <g fill="none" fill-rule="nonzero">
        <path fill="#0352BF" d="M51.274 13.116h-5.198V7.881c0-.77-.62-1.394-1.385-1.394h-5.056V1.394c0-.77-.62-1.394-1.385-1.394H1.4A1.39 1.39 0 0 0 .016 1.394V55.49c0 .77.62 1.395 1.384 1.395h5.057v5.092c0 .77.62 1.395 1.385 1.395h5.198v5.234c0 .77.62 1.395 1.384 1.395h36.85a1.39 1.39 0 0 0 1.385-1.395V14.511c0-.77-.62-1.395-1.385-1.395zM6.457 7.881v46.214H2.785V2.79h34.08v3.698H7.842A1.39 1.39 0 0 0 6.457 7.88zm7.967 5.235a1.39 1.39 0 0 0-1.384 1.395v46.071H9.226V9.276h34.08v3.84H14.425zm1.385 54.095V15.905h34.08V67.21H15.81z"/>
        <path fill="#FFC718" d="M44.17 22.655h-.414a1.39 1.39 0 0 0-1.385 1.395c0 .77.62 1.394 1.385 1.394h.414a1.39 1.39 0 0 0 1.384-1.394c0-.77-.62-1.395-1.384-1.395zM38.88 22.655H21.527a1.39 1.39 0 0 0-1.384 1.395c0 .77.62 1.394 1.384 1.394H38.88a1.39 1.39 0 0 0 1.385-1.394c0-.77-.62-1.395-1.385-1.395zM44.17 31.41H21.528a1.39 1.39 0 0 0-1.384 1.394c0 .77.62 1.394 1.384 1.394H44.17a1.39 1.39 0 0 0 1.384-1.394c0-.77-.62-1.395-1.384-1.395zM44.17 40.164H21.528a1.39 1.39 0 0 0-1.384 1.394c0 .77.62 1.395 1.384 1.395H44.17a1.39 1.39 0 0 0 1.384-1.395c0-.77-.62-1.394-1.384-1.394zM44.17 49.034H21.528a1.39 1.39 0 0 0-1.384 1.394c0 .77.62 1.395 1.384 1.395H44.17a1.39 1.39 0 0 0 1.384-1.395c0-.77-.62-1.394-1.384-1.394zM44.17 57.788H21.528a1.39 1.39 0 0 0-1.384 1.394c0 .77.62 1.395 1.384 1.395H44.17a1.39 1.39 0 0 0 1.384-1.395c0-.77-.62-1.394-1.384-1.394z"/>
    </g>
</svg>
