<svg xmlns="http://www.w3.org/2000/svg" width="53" height="66" viewBox="0 0 53 66">
    <g fill="none" fill-rule="nonzero">
        <path fill="#0352BF" d="M51.896 0H7.729c-.61 0-1.104.492-1.104 1.1v5.5h-5.52C.494 6.6 0 7.092 0 7.7v57.2c0 .608.494 1.1 1.104 1.1h44.167c.61 0 1.104-.492 1.104-1.1v-5.5h5.52c.61 0 1.105-.492 1.105-1.1V1.1c0-.608-.494-1.1-1.104-1.1zm-7.73 63.8H2.209v-55h33.125v7.7c0 .608.495 1.1 1.105 1.1h7.729v46.2zm-6.624-48.4v-5.045l5.063 5.045h-5.063zm13.25 41.8h-4.417V16.5c0-.292-.116-.571-.324-.778l-8.833-8.8a1.106 1.106 0 0 0-.78-.322H8.832V2.2h41.959v55z"/>
        <path fill="#FFC718" d="M28.708 23.199V14.3c0-.608-.494-1.1-1.104-1.1H9.938c-.61 0-1.105.492-1.105 1.1v15.4c0 .608.495 1.1 1.104 1.1H21.08c.558 3.316 3.53 5.684 6.9 5.498 3.37-.186 6.061-2.867 6.248-6.224.187-3.358-2.19-6.319-5.519-6.875zM19.875 15.4v3.72l-.61-.305a1.108 1.108 0 0 0-.988 0l-.61.305V15.4h2.208zm1.204 13.2H11.042V15.4h4.416v5.5c0 .381.198.735.524.936.325.2.732.219 1.074.049l1.715-.855 1.715.854c.342.17.748.153 1.074-.048a1.1 1.1 0 0 0 .523-.936v-5.5H26.5v7.799a6.621 6.621 0 0 0-5.421 5.401zm6.525 5.5c-2.44 0-4.416-1.97-4.416-4.4 0-2.43 1.977-4.4 4.416-4.4 2.44 0 4.417 1.97 4.417 4.4 0 2.43-1.978 4.4-4.417 4.4z"/>
        <path fill="#FFC718" d="M29.032 27.822L26.5 30.345l-.78-.778a1.107 1.107 0 0 0-1.863.486c-.101.384.014.793.301 1.07l1.561 1.555c.432.43 1.13.43 1.562 0l3.312-3.3a1.097 1.097 0 0 0-.013-1.542 1.107 1.107 0 0 0-1.548-.014zM9.938 44H7.729c-.61 0-1.104-.492-1.104-1.1 0-.608.494-1.1 1.104-1.1h2.208c.61 0 1.105.492 1.105 1.1 0 .608-.495 1.1-1.104 1.1zM38.646 44H14.354c-.61 0-1.104-.492-1.104-1.1 0-.608.494-1.1 1.104-1.1h24.292c.61 0 1.104.492 1.104 1.1 0 .608-.494 1.1-1.104 1.1zM38.646 48.4H7.729c-.61 0-1.104-.492-1.104-1.1 0-.608.494-1.1 1.104-1.1h30.917c.61 0 1.104.492 1.104 1.1 0 .608-.494 1.1-1.104 1.1zM38.646 52.8H7.729c-.61 0-1.104-.492-1.104-1.1 0-.608.494-1.1 1.104-1.1h30.917c.61 0 1.104.492 1.104 1.1 0 .608-.494 1.1-1.104 1.1zM38.646 57.2h-2.209c-.61 0-1.104-.492-1.104-1.1 0-.608.495-1.1 1.105-1.1h2.208c.61 0 1.104.492 1.104 1.1 0 .608-.494 1.1-1.104 1.1zM32.02 57.2H7.73c-.61 0-1.105-.492-1.105-1.1 0-.608.494-1.1 1.104-1.1h24.292c.61 0 1.104.492 1.104 1.1 0 .608-.494 1.1-1.104 1.1z"/>
    </g>
</svg>
