<svg xmlns="http://www.w3.org/2000/svg" width="54" height="66" viewBox="0 0 54 66">
    <g fill="none" fill-rule="nonzero">
        <path fill="#0352BF" d="M38.571.462A1.455 1.455 0 0 0 37.527 0H14.11c-3.857 0-7.076 2.81-7.715 6.472C3.148 7.034.595 9.585.03 12.8v44.102a9 9 0 0 0 9 9h31.673a7.83 7.83 0 0 0 6.525-6.385c3.683-.635 6.482-3.834 6.482-7.683v-34.94c0-.375-.13-.736-.392-1.01L38.571.462zm.349 4.626l9.976 10.335h-6.438c-1.915 0-3.538-1.528-3.538-3.43V5.087zm.594 58.047H7.73c-2.71 0-4.915-2.234-4.915-4.944V14.169a4.891 4.891 0 0 1 3.48-4.685v42.364c0 4.296 3.495 7.827 7.816 7.827h30.117a4.913 4.913 0 0 1-4.713 3.46zm6.38-6.343H14.11c-2.712 0-4.916-2.234-4.916-4.944V7.828c0-2.697 2.19-4.945 4.916-4.945h21.91v9.11c0 3.502 2.914 6.313 6.438 6.313h8.352v33.542c0 2.71-2.19 4.944-4.916 4.944z"/>
        <path fill="#FFC718" d="M41.936 47.567H18.068a1.45 1.45 0 0 0-1.45 1.442 1.45 1.45 0 0 0 1.45 1.441H41.95a1.45 1.45 0 0 0 1.45-1.441c0-.793-.652-1.442-1.464-1.442zM43.415 22.919a1.45 1.45 0 0 0-1.45-1.442H17.894a1.45 1.45 0 0 0-1.45 1.442v16.144a1.45 1.45 0 0 0 1.45 1.441h24.07a1.45 1.45 0 0 0 1.45-1.441V22.919zm-13.413 9.44l-9.547-8.273h18.818l-9.27 8.273zm-6.14-2.521l-4.815 5.651V25.46l4.815 4.379zm1.329 1.33l3.84 3.426c.275.245.623.36.956.36.349 0 .682-.115.957-.36l3.775-3.425 5.408 6.927H19.311l5.88-6.927zm11.249-1.345l4.53-4.314v10.465l-4.53-6.151z"/>
    </g>
</svg>
