<svg xmlns="http://www.w3.org/2000/svg" width="51" height="66" viewBox="0 0 51 66">
    <g fill="none" fill-rule="nonzero">
        <path fill="#0352BF" d="M50.029 9.6L41.348.97A3.363 3.363 0 0 0 38.993 0H3.326C1.49 0 0 1.477 0 3.3v59.4C0 64.523 1.49 66 3.326 66h44.348C49.51 66 51 64.523 51 62.7V11.93a3.27 3.27 0 0 0-.971-2.33zm-1.246 53.1c0 .607-.497 1.1-1.11 1.1H3.327a1.104 1.104 0 0 1-1.109-1.1V3.3c0-.607.497-1.1 1.11-1.1h35.477v7.7c0 1.823 1.49 3.3 3.326 3.3h4.435V11H42.13a1.104 1.104 0 0 1-1.108-1.1V3.76l7.437 7.393c.207.206.324.486.324.778V62.7z"/>
        <path fill="#0352BF" d="M6.652 6.6h2.217v2.2H6.652zM11.087 6.6h22.174v2.2H11.087zM6.652 11h26.609v2.2H6.652z"/>
        <path fill="#FFC718" d="M12.196 19.8c-4.899 0-8.87 3.94-8.87 8.8 0 4.86 3.971 8.8 8.87 8.8 4.898 0 8.87-3.94 8.87-8.8-.006-4.858-3.974-8.795-8.87-8.8zm0 15.4c-3.674-.021-6.635-2.993-6.614-6.638.019-3.192 2.336-5.913 5.505-6.463V28.6c0 .607.496 1.1 1.109 1.1h6.552c-.543 3.172-3.31 5.494-6.552 5.5zm1.108-7.7v-5.401c2.786.472 4.968 2.637 5.444 5.401h-5.444zM46.565 37.4H42.13c-.612 0-1.108.493-1.108 1.1v12.1h-1.109v-7.7c0-.607-.496-1.1-1.109-1.1H34.37c-.613 0-1.11.493-1.11 1.1v7.7h-1.108v-5.5c0-.607-.496-1.1-1.109-1.1H26.61c-.613 0-1.109.493-1.109 1.1v5.5h-1.109V34.1h-2.217v17.6c0 .607.496 1.1 1.109 1.1h24.39V38.5c0-.607-.496-1.1-1.108-1.1zm-16.63 13.2h-2.218v-4.4h2.218v4.4zm7.76 0h-2.217V44h2.218v6.6zm7.762 0h-2.218v-11h2.218v11z"/>
        <path fill="#0352BF" d="M26.609 23.1h13.304v2.2H26.609zM26.609 27.5h4.435v2.2h-4.435zM33.261 27.5h6.652v2.2h-6.652zM7.761 40.7h8.87v2.2h-8.87zM7.761 45.1h8.87v2.2h-8.87z"/>
    </g>
</svg>
