<svg xmlns="http://www.w3.org/2000/svg" width="77" height="70" viewBox="0 0 77 70">
    <g fill="none" fill-rule="nonzero">
        <path fill="#0352BF" d="M53.185 42.024c-.623 0-1.127.505-1.127 1.127v5.277c0 .988-.804 1.792-1.792 1.792H35.49a1.126 1.126 0 1 0 0 2.254h14.776a4.05 4.05 0 0 0 4.045-4.046V43.15c0-.622-.504-1.127-1.126-1.127zM50.326 24.658v-4.875c0-2.358-.694-4.638-2.006-6.595a1.127 1.127 0 0 0-1.872 1.254 9.557 9.557 0 0 1 1.624 5.34v4.874h-2.855v-4.873a6.77 6.77 0 0 0-6.762-6.763 6.77 6.77 0 0 0-6.763 6.763v4.873h-2.855v-4.873c0-5.303 4.315-9.618 9.618-9.618 1.587 0 3.16.397 4.552 1.149a1.127 1.127 0 0 0 1.071-1.983 11.873 11.873 0 0 0-5.623-1.419c-6.546 0-11.871 5.325-11.871 11.871v4.875a4.05 4.05 0 0 0-3.986 4.044v19.726a4.05 4.05 0 0 0 4.046 4.046h3.66a1.126 1.126 0 1 0 0-2.254h-3.66a1.795 1.795 0 0 1-1.792-1.792v-14.18h27.206v3.717a1.126 1.126 0 1 0 2.253 0v-9.263a4.05 4.05 0 0 0-3.985-4.044zm-16.38-4.875a4.514 4.514 0 0 1 4.509-4.51 4.514 4.514 0 0 1 4.51 4.51v4.873h-9.02v-4.873zm-9.094 12.213v-3.294c0-.988.804-1.793 1.792-1.793h23.622c.988 0 1.792.805 1.792 1.793v3.294H24.852z"/>
        <path fill="#0352BF" d="M38.455 47.548c.622 0 1.127-.505 1.127-1.127v-2.109a3.74 3.74 0 0 0 2.606-3.559 3.737 3.737 0 0 0-3.733-3.733 3.737 3.737 0 0 0-3.733 3.733 3.74 3.74 0 0 0 2.606 3.56v2.108c0 .622.505 1.127 1.127 1.127zm0-8.275c.816 0 1.48.664 1.48 1.48s-.664 1.48-1.48 1.48-1.48-.664-1.48-1.48.664-1.48 1.48-1.48z"/>
        <path fill="#FFC718" d="M67.33 25.231c-.3 0-.586.119-.797.33l-4.55 4.55h-4.082a1.126 1.126 0 1 0 0 2.253h4.549c.298 0 .585-.118.796-.33l4.55-4.55h2.193a3.558 3.558 0 0 0 3.368 2.426 3.556 3.556 0 0 0 3.553-3.552 3.556 3.556 0 0 0-3.553-3.553 3.558 3.558 0 0 0-3.368 2.426h-2.66zm6.027-.173a1.3 1.3 0 0 1 1.3 1.3 1.3 1.3 0 0 1-1.3 1.299 1.3 1.3 0 0 1-1.299-1.3 1.3 1.3 0 0 1 1.3-1.299zM73.357 40.46a3.558 3.558 0 0 0-3.368 2.427h-2.193l-4.55-4.55a1.127 1.127 0 0 0-.796-.33h-4.548a1.126 1.126 0 1 0 0 2.253h4.081l4.55 4.55c.211.211.498.33.796.33h2.66a3.558 3.558 0 0 0 3.369 2.426 3.556 3.556 0 0 0 3.552-3.553 3.557 3.557 0 0 0-3.553-3.552zm0 4.853a1.3 1.3 0 0 1-1.299-1.3 1.3 1.3 0 0 1 1.3-1.299 1.3 1.3 0 0 1 1.299 1.3 1.3 1.3 0 0 1-1.3 1.299zM19.008 38.007H14.46c-.299 0-.585.119-.796.33l-4.55 4.55H3.552a1.126 1.126 0 1 0 0 2.253h6.029c.298 0 .585-.119.796-.33l4.55-4.55h4.081a1.126 1.126 0 1 0 0-2.253zM5.653 19.739h8.009l4.55 4.55a1.124 1.124 0 0 0 1.593 0c.44-.44.44-1.154 0-1.594l-4.88-4.88a1.127 1.127 0 0 0-.796-.33H5.653a1.126 1.126 0 1 0 0 2.254zM6.92 32.381h12.088a1.126 1.126 0 1 0 0-2.253H6.921a3.558 3.558 0 0 0-3.368-2.426A3.556 3.556 0 0 0 0 31.255a3.556 3.556 0 0 0 3.552 3.552 3.558 3.558 0 0 0 3.369-2.426zm-4.667-1.126a1.3 1.3 0 0 1 1.3-1.3 1.3 1.3 0 0 1 1.299 1.3 1.3 1.3 0 0 1-1.3 1.299 1.3 1.3 0 0 1-1.299-1.3zM20.033 52.143l-2.867 2.867c-.211.211-.33.498-.33.797v7.22a3.558 3.558 0 0 0-2.426 3.368 3.556 3.556 0 0 0 3.553 3.553 3.556 3.556 0 0 0 3.552-3.553 3.558 3.558 0 0 0-2.426-3.368v-6.754l2.538-2.537a1.127 1.127 0 1 0-1.594-1.593zm-2.07 15.552a1.3 1.3 0 0 1-1.3-1.3 1.3 1.3 0 0 1 1.3-1.299 1.3 1.3 0 0 1 1.299 1.3 1.3 1.3 0 0 1-1.3 1.299zM57.428 52.143a1.127 1.127 0 0 0-1.594 1.593l2.538 2.537v10.122a1.126 1.126 0 1 0 2.253 0V55.807c0-.3-.119-.586-.33-.797l-2.867-2.867zM56.63 16.02c.29 0 .578-.11.798-.33l2.867-2.867c.211-.211.33-.498.33-.797V6.973a3.558 3.558 0 0 0 2.425-3.368A3.556 3.556 0 0 0 59.498.052a3.556 3.556 0 0 0-3.552 3.553 3.558 3.558 0 0 0 2.425 3.368v4.587l-2.537 2.537a1.127 1.127 0 0 0 .797 1.923zm2.868-13.715a1.3 1.3 0 0 1 1.3 1.3 1.3 1.3 0 0 1-1.3 1.299 1.3 1.3 0 0 1-1.3-1.3 1.3 1.3 0 0 1 1.3-1.299zM19.09 11.56V3.154a1.126 1.126 0 1 0-2.254 0v8.872c0 .3.119.586.33.797l2.867 2.867a1.124 1.124 0 0 0 1.594 0c.44-.44.44-1.153 0-1.593l-2.538-2.537zM56.63 20.827a1.126 1.126 0 1 0 0 2.253h5.042c.299 0 .585-.119.797-.33l7.215-7.215c.21-.211.33-.498.33-.797v-5.7a1.126 1.126 0 1 0-2.254 0v5.234l-6.555 6.555h-4.574zM70.931 52.066h-4.146l-7.254-7.255a1.127 1.127 0 0 0-1.594 1.594l7.585 7.584c.211.211.497.33.796.33h4.614a1.126 1.126 0 1 0 0-2.253zM15.343 47.945h3.665a1.126 1.126 0 1 0 0-2.253h-4.132c-.298 0-.585.118-.796.33l-6.885 6.884a3.531 3.531 0 0 0-1.542-.353A3.556 3.556 0 0 0 2.1 56.105a3.556 3.556 0 0 0 3.553 3.553 3.556 3.556 0 0 0 3.552-3.553 3.53 3.53 0 0 0-.396-1.627l6.534-6.533zm-9.69 9.46a1.3 1.3 0 0 1-1.3-1.3 1.3 1.3 0 0 1 1.3-1.299 1.3 1.3 0 0 1 1.3 1.3 1.3 1.3 0 0 1-1.3 1.299z"/>
        <path fill="#0352BF" d="M44.91 56.648H32a3.638 3.638 0 0 0-3.634 3.634A3.638 3.638 0 0 0 32 63.916h12.91a3.638 3.638 0 0 0 3.633-3.634 3.638 3.638 0 0 0-3.633-3.634zm0 5.015H32c-.761 0-1.38-.62-1.38-1.38 0-.762.619-1.381 1.38-1.381h12.91c.76 0 1.38.619 1.38 1.38 0 .762-.62 1.381-1.38 1.381z"/>
    </g>
</svg>
