<svg xmlns="http://www.w3.org/2000/svg" width="60" height="60" viewBox="0 0 60 60">
    <g fill="#FFF" fill-rule="evenodd">
        <path d="M32.3 15.23c4.174 1.389 7.82 3.971 10.398 7.47 0-2.72-.632-6.104-1.3-8.307-2.402-.367-6.874.007-9.099.838zM42.043 24.592c-2.564-2.655-4.501-4.27-5.284-4.732-2.114-1.664-4.219-2.657-5.923-3.507-1.487.803-5.926 6.659-7.468 9.522 0 0-4.115-.497-4.42 6.752 2.203-3.096 3.966-2.571 3.966-2.571s.623 2.188 3.208 4.149c2.329 1.626 5.014 1.857 5.014 1.857s1 1.542-1.347 4.53c6.867-2.34 5.228-6.147 5.228-6.147 2.312-2.289 6.675-8.2 7.026-9.854zM32.3 22.027a3.849 3.849 0 1 1 0 7.698 3.849 3.849 0 0 1 0-7.698z"/>
        <path d="M25.08 39.502l-3.74-3.058-3.498 4.616c-.272.358-2.632 1.122-2.594-1.15.162-9.54-7.11-5.847-6.964-8.245.145-2.397-.775-5.068-3.772-5.302-2.998-.234-2.967-1.451-2.967-1.451a26.914 26.914 0 0 0-.543 5.389c0 15.249 12.763 27.61 28.508 27.61 7.539 0 14.394-2.834 19.492-7.462 0 0-1.409.973-3.439-.706-2.03-1.68-4.4 3.512-5.754.094-1.353-3.418-3.626-1.64-4.883-2.107-1.257-.468-1.064-3.09-3.531-2.857-2.467.235-2.993.583-5.555 1.38-2.562.795-5.264-.267-3.678-2.55l2.918-4.201z"/>
        <path d="M30.006 57.006c-14.912 0-27-12.088-27-27 0-1.803.177-3.566.514-5.27 2.451-12.389 13.378-21.73 26.486-21.73 14.912 0 27 12.088 27 27 0 7.772-3.283 14.776-8.538 19.702a26.907 26.907 0 0 1-18.462 7.298zM59.96 29.983C59.96 13.427 46.54.006 29.983.006 13.427.006.006 13.427.006 29.983S13.427 59.96 29.983 59.96 59.96 46.54 59.96 29.983z"/>
    </g>
</svg>
