<svg xmlns="http://www.w3.org/2000/svg" width="40" height="40" viewBox="0 0 40 40">
    <path fill="#0352BF" fill-rule="nonzero" d="M20 0C8.947 0 0 8.945 0 20c0 3.508.915 6.934 2.652 9.956L.075 37.958a1.562 1.562 0 0 0 1.967 1.967l8.002-2.577A19.954 19.954 0 0 0 20 40c11.053 0 20-8.945 20-20C40 8.947 31.055 0 20 0zm0 36.875c-3.169 0-6.257-.884-8.932-2.557a1.564 1.564 0 0 0-1.308-.162l-5.776 1.86 1.86-5.776a1.564 1.564 0 0 0-.163-1.308A16.828 16.828 0 0 1 3.125 20c0-9.305 7.57-16.875 16.875-16.875S36.875 10.695 36.875 20 29.305 36.875 20 36.875zM21.953 20a1.953 1.953 0 1 1-3.906 0 1.953 1.953 0 0 1 3.906 0zm7.813 0a1.953 1.953 0 1 1-3.907 0 1.953 1.953 0 0 1 3.907 0zM14.14 20a1.953 1.953 0 1 1-3.907 0 1.953 1.953 0 0 1 3.907 0z"/>
</svg>
