<svg xmlns="http://www.w3.org/2000/svg" width="70" height="70" viewBox="0 0 70 70">
    <g fill="none" fill-rule="evenodd">
        <g fill="#0352BF" fill-rule="nonzero">
            <path d="M55.706 17.895c-.43 0-.86.02-1.289.058a11.345 11.345 0 0 0-6.832-7.064C46.748 4.71 41.44 0 35.105 0a12.595 12.595 0 0 0-11.574 7.621c-8.33.465-14.966 7.39-14.966 15.834 0 .941.083 1.876.247 2.796C3.844 26.913 0 31.177 0 36.323c0 5.603 4.558 10.161 10.161 10.161h4.553a20.574 20.574 0 0 0-.222 3.008C14.492 60.8 23.692 70 35 70s20.508-9.2 20.508-20.508c0-1.021-.076-2.025-.221-3.008h.419C63.588 46.484 70 40.072 70 32.19c0-7.882-6.412-14.295-14.294-14.295zM50.139 50.86h2.583c-.666 8.712-7.642 15.688-16.355 16.354V64.63a1.367 1.367 0 1 0-2.734 0v2.583c-8.713-.666-15.688-7.642-16.354-16.354h2.582a1.367 1.367 0 1 0 0-2.735H17.28c.666-8.713 7.641-15.688 16.354-16.354v2.582a1.367 1.367 0 1 0 2.734 0v-2.582c8.713.666 15.689 7.641 16.355 16.354h-2.583a1.367 1.367 0 1 0 0 2.735zm5.567-7.11h-1.017C52.199 35.228 44.316 28.985 35 28.985c-9.315 0-17.199 6.243-19.688 14.765h-5.15c-4.096 0-7.427-3.332-7.427-7.427s3.331-7.427 7.426-7.427c.101 0 .201.003.301.007a1.365 1.365 0 0 0 1.366-1.75 13.145 13.145 0 0 1-.529-3.697c0-7.238 5.888-13.125 13.13-13.125h.044a1.37 1.37 0 0 0 1.299-.925 9.86 9.86 0 0 1 9.333-6.672c5.21 0 9.533 4.07 9.842 9.265a1.367 1.367 0 0 0 1.01 1.24c3.076.828 5.475 3.38 6.11 6.5.149.728.851 1.204 1.581 1.073a11.685 11.685 0 0 1 2.058-.183c6.374 0 11.56 5.186 11.56 11.56 0 6.375-5.186 11.561-11.56 11.561z"/>
            <path d="M28.069 11.984a1.367 1.367 0 0 0-1.735.853l-.026.074a1.367 1.367 0 1 0 2.588.883l.026-.075a1.367 1.367 0 0 0-.853-1.735zM38.026 4.91a8.184 8.184 0 0 0-2.92-.535A8.18 8.18 0 0 0 27.758 8.9a1.367 1.367 0 1 0 2.443 1.229 5.46 5.46 0 0 1 4.903-3.02c.671 0 1.327.12 1.95.357a1.367 1.367 0 1 0 .971-2.556z"/>
        </g>
        <circle cx="35" cy="49.438" r="20.563" fill="none" />
        <path fill="#0352BF" fill-rule="nonzero" d="M40.537 48.125h-4.17v-8.44a1.367 1.367 0 1 0-2.734 0v9.807c0 .755.612 1.368 1.367 1.368h5.537a1.367 1.367 0 1 0 0-2.735z"/>
    </g>
</svg>
