<svg xmlns="http://www.w3.org/2000/svg" width="75" height="60" viewBox="0 0 75 60">
    <g fill="none" fill-rule="nonzero">
        <path fill="#FFC718" d="M59.821 11.375a1.457 1.457 0 0 0 0-2.064c-.573-.57-1.5-.57-2.071 0a1.455 1.455 0 0 0 0 2.064 1.47 1.47 0 0 0 2.071 0zM19.114 14.398a1.457 1.457 0 0 0 0-2.064 1.47 1.47 0 0 0-2.07 0 1.455 1.455 0 0 0 0 2.064c.57.571 1.498.571 2.07 0zM10.494 22.805l4.384-4.371a1.456 1.456 0 0 0 0-2.065 1.47 1.47 0 0 0-2.071 0L8.422 20.74a1.456 1.456 0 0 0 0 2.065c.572.57 1.5.57 2.072 0zM64.653 18.57c.573.571 1.5.571 2.072 0a1.456 1.456 0 0 0 0-2.063l-2.922-2.913c-.572-.57-1.5-.57-2.072 0a1.457 1.457 0 0 0 0 2.065l2.922 2.912z"/>
        <path fill="#0352BF" d="M74.57 16.945L58 .428a1.467 1.467 0 0 0-2.04-.03c-1.286 1.208-7.335 6.885-7.423 6.97l-.016.015c-1.433 1.427-2.843 2.064-4.573 2.064-3.538 0-6.248.996-8.498 3.12-1.846-1.742-3.937-2.642-6.856-2.943l-7.323-7.298c-.572-.57-1.5-.57-2.072 0L.43 21.032a1.454 1.454 0 0 0-.032 2.03c.011.011.02.023.032.034 0 0 12.214 12.154 12.232 12.17l-.518.516a5.094 5.094 0 0 0 0 7.226 5.117 5.117 0 0 0 3.679 1.491 5.062 5.062 0 0 0 1.5 3.67 5.114 5.114 0 0 0 3.68 1.493 5.062 5.062 0 0 0 1.5 3.669 5.116 5.116 0 0 0 3.678 1.491 5.062 5.062 0 0 0 1.501 3.67 5.145 5.145 0 0 0 7.25 0l.518-.516.519.516a5.145 5.145 0 0 0 7.25 0 5.065 5.065 0 0 0 1.5-3.667 5.096 5.096 0 0 0 3.68-1.495 5.084 5.084 0 0 0 1.497-3.665 5.096 5.096 0 0 0 3.68-1.496 5.06 5.06 0 0 0 1.501-3.67 5.118 5.118 0 0 0 3.68-1.491 5.094 5.094 0 0 0 0-7.226l-.518-.515c10.214-10.167-2.706 2.72 16.333-16.258a1.456 1.456 0 0 0 0-2.064zM3.538 22.064L20.235 5.423l5.628 5.608-16.695 16.64-5.631-5.607zm10.678 18.88a2.184 2.184 0 0 1 0-3.097l5.18-5.162a2.205 2.205 0 0 1 3.106 0c.86.857.86 2.24 0 3.097l-5.178 5.16a2.209 2.209 0 0 1-3.108.001zm5.18 5.161a2.183 2.183 0 0 1 0-3.097l5.178-5.161a2.2 2.2 0 0 1 3.108 0c.857.853.86 2.24 0 3.096l-5.18 5.162a2.205 2.205 0 0 1-3.107 0zm5.178 5.16a2.183 2.183 0 0 1 0-3.096l5.18-5.161a2.205 2.205 0 0 1 3.107 0c.846.842.87 2.228 0 3.097h-.001l-5.177 5.16a2.208 2.208 0 0 1-3.11 0zm5.18 5.163a2.183 2.183 0 0 1 0-3.098l5.178-5.16a2.2 2.2 0 0 1 3.107 0 2.184 2.184 0 0 1 0 3.096l-5.179 5.162a2.206 2.206 0 0 1-3.107 0zm11.393 0a2.204 2.204 0 0 1-3.107 0l-.518-.517 2.59-2.58a5.28 5.28 0 0 0 .479-.555l.555.554h.001c.86.857.86 2.24 0 3.098zm15.538-15.485a2.207 2.207 0 0 1-3.108 0l-6.733-6.71c-.572-.57-1.5-.57-2.072 0a1.457 1.457 0 0 0 0 2.065l6.733 6.71c.859.855.86 2.24 0 3.097-.86.857-2.25.854-3.107 0l-6.732-6.711c-.572-.57-1.5-.57-2.072 0a1.457 1.457 0 0 0 0 2.065l6.732 6.71a2.186 2.186 0 0 1 0 3.096 2.186 2.186 0 0 1-1.554.642c-1.392 0-1.84-1.093-3.16-2.243a5.061 5.061 0 0 0-1.5-3.558 5.095 5.095 0 0 0-3.679-1.497 5.06 5.06 0 0 0-1.501-3.666 5.12 5.12 0 0 0-3.678-1.493 5.112 5.112 0 0 0-5.179-5.163 5.062 5.062 0 0 0-1.501-3.667 5.144 5.144 0 0 0-7.25 0l-2.591 2.583-3.49-3.469 17.24-17.184c2.135.243 3.572.854 4.89 2.075l-4.139 4.124a5.835 5.835 0 0 0 0 8.259c2.286 2.275 6.003 2.276 8.288 0l4.144-4.13c2.677 2.67 13.066 13.024 15.018 14.97a2.186 2.186 0 0 1 0 3.095zm-.518-7.74l-12.43-12.39 1.036-1.031a1.456 1.456 0 0 0 0-2.065 1.47 1.47 0 0 0-2.072 0l-7.251 7.227a2.942 2.942 0 0 1-4.144 0 2.919 2.919 0 0 1 0-4.13l5.965-5.943c1.737-1.732 3.797-2.504 6.678-2.504 2.072 0 3.86-.62 5.536-1.935L64.07 25.346l-7.904 7.857zm9.976-9.922L51.646 8.46l5.288-4.965 14.53 14.483-5.322 5.304z"/>
    </g>
</svg>
