<svg xmlns="http://www.w3.org/2000/svg" width="70" height="70" viewBox="0 0 70 70">
    <g fill="none" fill-rule="nonzero">
        <path fill="#FFC718" d="M25.968 44.032c0-1.47-.947-2.712-2.258-3.179v-4.724a6.78 6.78 0 0 0-6.775-6.774 6.78 6.78 0 0 0-6.774 6.774v4.724a3.383 3.383 0 0 0-2.258 3.18v11.29a3.392 3.392 0 0 0 3.387 3.387h11.29a3.392 3.392 0 0 0 3.388-3.387v-11.29zm-9.033-12.42a4.52 4.52 0 0 1 4.517 4.517v4.516h-9.033V36.13a4.52 4.52 0 0 1 4.516-4.516zm6.775 23.71a1.13 1.13 0 0 1-1.13 1.13H11.29a1.13 1.13 0 0 1-1.129-1.13v-11.29a1.13 1.13 0 0 1 1.13-1.129h11.29a1.13 1.13 0 0 1 1.129 1.13v11.29z"/>
        <path fill="#FFC718" d="M16.935 45.161a3.392 3.392 0 0 0-3.387 3.387c0 1.47.947 2.712 2.258 3.18v2.466h2.259v-2.466a3.383 3.383 0 0 0 2.258-3.18 3.392 3.392 0 0 0-3.388-3.387zm0 4.516a1.13 1.13 0 0 1-1.129-1.129 1.13 1.13 0 0 1 1.13-1.129 1.13 1.13 0 0 1 1.129 1.13 1.13 1.13 0 0 1-1.13 1.128z"/>
        <path fill="#0352BF" d="M18.065 0v21.999l-1.13-.807-2.127 1.522a23.411 23.411 0 0 1-13.679 4.383H0v13.548a35.222 35.222 0 0 0 7 21l.16.214 9.775 4.887 1.13-.564V70H70V0H18.065zm25.967 13.548a3.392 3.392 0 0 1-3.387-3.387 3.392 3.392 0 0 1 3.387-3.387 3.392 3.392 0 0 1 3.387 3.387 3.392 3.392 0 0 1-3.387 3.387zm3.387 1.1v6.832a5.594 5.594 0 0 0-3.387-1.157 5.588 5.588 0 0 0-3.387 1.158v-6.832a5.594 5.594 0 0 0 3.387 1.157 5.588 5.588 0 0 0 3.387-1.158zm-3.387 7.933a3.392 3.392 0 0 1 3.387 3.387 3.392 3.392 0 0 1-3.387 3.387 3.392 3.392 0 0 1-3.387-3.387 3.392 3.392 0 0 1 3.387-3.387zm5.531-13.549a5.656 5.656 0 0 0-5.53-4.516A5.656 5.656 0 0 0 38.5 9.032H28.226c-3.973 0-7.262-2.95-7.813-6.774h47.239c-.551 3.823-3.84 6.774-7.813 6.774H49.563zM8.65 60.078a32.95 32.95 0 0 1-6.39-19.433V29.331a25.647 25.647 0 0 0 13.861-4.779l.815-.584.817.583a25.631 25.631 0 0 0 13.86 4.779v11.315a32.95 32.95 0 0 1-6.39 19.433l-8.287 4.143-8.286-4.143zm59.093 7.664h-47.42v-2.69l6.389-3.193.16-.214a35.222 35.222 0 0 0 7-21V27.097h-1.13a23.388 23.388 0 0 1-12.418-3.555V7.502a10.141 10.141 0 0 0 7.903 3.788h10.161v14.678a5.652 5.652 0 0 0 5.645 5.645 5.652 5.652 0 0 0 5.645-5.645V11.29H59.84c3.19 0 6.039-1.481 7.903-3.789v60.24z"/>
        <path fill="#FFC718" d="M45.161 10.161a1.13 1.13 0 1 1-2.258 0 1.13 1.13 0 0 1 2.258 0zM45.161 25.968a1.13 1.13 0 1 1-2.258 0 1.13 1.13 0 0 1 2.258 0zM40.645 65.484h24.839V49.677H40.645v15.807zm2.258-13.549h20.323v11.29H42.903v-11.29z"/>
        <path fill="#FFC718" d="M45.161 54.194h15.807v2.258H45.16zM45.161 58.71h11.29v2.258h-11.29zM58.71 58.71h2.258v2.258H58.71z"/>
    </g>
</svg>
