<svg xmlns="http://www.w3.org/2000/svg" width="66" height="66" viewBox="0 0 66 66">
    <g fill="none" fill-rule="nonzero">
        <path fill="#0352BF" d="M61.875 31.625V16.5c0-.76-.616-1.375-1.375-1.375h-4.125V1.375C56.375.615 55.759 0 55 0H20.625c-.073 0-.146.007-.218.019l-.047.007-.062.015c-.023.006-.046.01-.07.018l-.043.015-.084.03-.032.015-.09.042-.03.018a1.313 1.313 0 0 0-.085.051l-.044.032c-.022.016-.044.031-.065.049-.035.029-.07.06-.102.092l-9.625 9.625a1.375 1.375 0 0 0-.403.972v4.125H5.5c-.76 0-1.375.616-1.375 1.375v15.125A4.125 4.125 0 0 0 0 35.75V60.5c0 .76.616 1.375 1.375 1.375h8.25v2.75c0 .76.616 1.375 1.375 1.375h44c.76 0 1.375-.616 1.375-1.375v-2.75h8.25c.76 0 1.375-.616 1.375-1.375V35.75a4.125 4.125 0 0 0-4.125-4.125zm-2.75-13.75v13.75h-2.75v-13.75h2.75zm-38.5-5.5c.76 0 1.375-.616 1.375-1.375V2.75h31.625v28.875h-41.25V11.569l6.875-6.875v4.931H16.5v2.75h4.125zm-13.75 5.5h2.75v13.75h-2.75v-13.75zm46.75 45.375h-41.25v-6.875A4.125 4.125 0 0 1 16.5 52.25h33a4.125 4.125 0 0 1 4.125 4.125v6.875zm9.625-4.125h-6.875v-2.75A6.883 6.883 0 0 0 49.5 49.5h-33a6.883 6.883 0 0 0-6.875 6.875v2.75H2.75V35.75c0-.76.616-1.375 1.375-1.375h57.75c.76 0 1.375.616 1.375 1.375v23.375z"/>
        <path fill="#FFC718" d="M5.5 37.125h2.75v2.75H5.5zM11 37.125h2.75v2.75H11zM15.125 56.375h30.25v2.75h-30.25zM17.875 15.125h30.25v2.75h-30.25zM17.875 20.625h30.25v2.75h-30.25zM17.875 26.125h30.25v2.75h-30.25zM26.125 9.625h11v2.75h-11zM45.375 9.625h2.75v2.75h-2.75zM39.875 9.625h2.75v2.75h-2.75zM48.125 56.375h2.75v2.75h-2.75zM59.125 37.125h-8.25c-.76 0-1.375.616-1.375 1.375V44c0 .76.616 1.375 1.375 1.375h8.25c.76 0 1.375-.616 1.375-1.375v-5.5c0-.76-.616-1.375-1.375-1.375zm-1.375 5.5h-5.5v-2.75h5.5v2.75z"/>
    </g>
</svg>
