<svg xmlns="http://www.w3.org/2000/svg" width="66" height="66" viewBox="0 0 66 66">
    <g fill="none" fill-rule="nonzero">
        <path fill="#FFC718" d="M26.24 50.728c.16-.39.241-.807.242-1.228v-2.2a3.284 3.284 0 0 0-.856-2.2 3.284 3.284 0 0 0 .856-2.2v-2.2c0-1.822-1.474-3.3-3.293-3.3h-4.631c5.725-2.492 8.919-8.668 7.649-14.793-1.27-6.124-6.655-10.514-12.897-10.514S1.683 16.483.413 22.607c-1.27 6.125 1.923 12.3 7.649 14.793H3.43a3.297 3.297 0 0 0-3.293 3.3v2.2c.003.814.308 1.598.856 2.2a3.284 3.284 0 0 0-.856 2.2v2.2a3.298 3.298 0 0 0 2.437 3.172 3.28 3.28 0 0 0-.241 1.228v2.2c0 .421.083.838.241 1.228A3.298 3.298 0 0 0 .137 60.5v2.2c0 1.822 1.475 3.3 3.293 3.3h19.76a3.297 3.297 0 0 0 3.292-3.3v-2.2a3.28 3.28 0 0 0-.241-1.228 3.298 3.298 0 0 0 2.437-3.172v-2.2a3.298 3.298 0 0 0-2.437-3.172zM2.334 25.3c0-6.075 4.914-11 10.977-11 6.062 0 10.977 4.925 10.977 11s-4.915 11-10.977 11c-6.06-.006-10.97-4.927-10.977-11zm0 15.4c0-.607.491-1.1 1.097-1.1h19.76c.605 0 1.097.493 1.097 1.1v2.2c0 .607-.492 1.1-1.098 1.1v-2.2h-2.195V44h-2.196v-2.2h-2.195V44h-2.196v-2.2h-2.195V44h-2.195v-2.2H7.82V44H5.626v-2.2H3.43V44a1.099 1.099 0 0 1-1.097-1.1v-2.2zm0 8.8v-2.2c0-.607.491-1.1 1.097-1.1h19.76c.605 0 1.097.493 1.097 1.1v2.2c0 .607-.492 1.1-1.098 1.1v-2.2h-2.195v2.2h-2.196v-2.2h-2.195v2.2h-2.196v-2.2h-2.195v2.2h-2.195v-2.2H7.82v2.2H5.626v-2.2H3.43v2.2a1.099 1.099 0 0 1-1.097-1.1zm21.954 13.2c0 .607-.492 1.1-1.098 1.1v-2.2h-2.195v2.2h-2.196v-2.2h-2.195v2.2h-2.196v-2.2h-2.195v2.2h-2.195v-2.2H7.82v2.2H5.626v-2.2H3.43v2.2a1.099 1.099 0 0 1-1.097-1.1v-2.2c0-.607.491-1.1 1.097-1.1h19.76c.605 0 1.097.493 1.097 1.1v2.2zm2.195-6.6c0 .607-.491 1.1-1.097 1.1V55h-2.196v2.2h-2.195V55h-2.196v2.2h-2.195V55h-2.196v2.2h-2.195V55h-2.195v2.2H7.82V55H5.626v2.2a1.099 1.099 0 0 1-1.098-1.1v-2.2c0-.607.492-1.1 1.098-1.1h19.759c.606 0 1.097.493 1.097 1.1v2.2z"/>
        <path fill="#FFC718" d="M14.407 33v-2.31c1.912-.36 3.294-1.625 3.294-3.19 0-1.85-1.929-3.3-4.391-3.3-1.34 0-2.196-.651-2.196-1.1 0-.449.855-1.1 2.196-1.1 1.34 0 2.195.651 2.195 1.1h2.196c0-1.563-1.382-2.828-3.294-3.19V17.6h-2.195v2.31c-1.911.36-3.293 1.625-3.293 3.19 0 1.85 1.928 3.3 4.39 3.3 1.341 0 2.196.651 2.196 1.1 0 .449-.855 1.1-2.195 1.1-1.34 0-2.196-.651-2.196-1.1H8.92c0 1.563 1.382 2.828 3.293 3.19V33h2.195z"/>
        <path fill="#0352BF" d="M52.184 0H15.505v11h2.196V2.2h32.931v13.2h13.173v48.4H28.678V66H66V13.845L52.184 0zm.643 3.755l9.425 9.445h-9.425V3.755z"/>
        <path fill="#0352BF" d="M58.316 55V36.3H51.73V55h-2.196V40.7h-6.586V55h-2.195v-9.9h-6.587V55h-2.195v2.2h28.54V55h-2.195zm-21.954 0v-7.7h2.195V55h-2.195zm17.563-16.5h2.196V55h-2.196V38.5zm-8.782 4.4h2.196V55h-2.196V42.9z"/>
        <path fill="#FFC718" d="M49.534 25.3v2.2h3.937l-6.132 6.145-4.391-4.4-8.46 8.477 1.552 1.556 6.908-6.923 4.39 4.4 7.685-7.7V33h2.195v-7.7z"/>
        <path fill="#0352BF" d="M28.678 8.8h2.195V11h-2.195zM33.069 8.8H46.24V11H33.07zM28.678 13.2h2.195v2.2h-2.195zM33.069 13.2H46.24v2.2H33.07zM28.678 17.6h2.195v2.2h-2.195zM33.069 17.6H46.24v2.2H33.07z"/>
    </g>
</svg>
