<svg xmlns="http://www.w3.org/2000/svg" width="70" height="70" viewBox="0 0 70 70">
    <g fill="none" fill-rule="nonzero">
        <circle cx="7.292" cy="7.292" r="1.458" fill="#0352BF"/>
        <circle cx="13.125" cy="7.292" r="1.458" fill="#0352BF"/>
        <circle cx="18.958" cy="7.292" r="1.458" fill="#0352BF"/>
        <path fill="#0352BF" d="M64.167 41.594V5.834A5.839 5.839 0 0 0 58.333 0h-52.5A5.839 5.839 0 0 0 0 5.833v52.5a5.84 5.84 0 0 0 5.833 5.834h35.76C44.539 67.727 48.989 70 53.959 70 62.804 70 70 62.804 70 53.958c0-4.97-2.273-9.42-5.833-12.364zM2.917 5.834a2.92 2.92 0 0 1 2.916-2.917h52.5a2.92 2.92 0 0 1 2.917 2.916v5.834H2.917V5.833zM5.833 61.25a2.92 2.92 0 0 1-2.916-2.917v-43.75H61.25v25.105a15.926 15.926 0 0 0-7.292-1.771c-8.845 0-16.041 7.196-16.041 16.041 0 2.627.647 5.101 1.77 7.292H5.834zm48.125 5.833c-7.237 0-13.125-5.887-13.125-13.125 0-7.237 5.888-13.125 13.125-13.125 7.238 0 13.125 5.888 13.125 13.125 0 7.238-5.887 13.125-13.125 13.125z"/>
        <path fill="#FFC718" d="M50.392 52.255a1.457 1.457 0 1 0-1.618-2.427l-1.354.903a7.301 7.301 0 0 1 6.538-4.064 7.293 7.293 0 0 1 6.049 3.215 1.456 1.456 0 0 0 2.023.392c.668-.45.844-1.357.392-2.024a10.2 10.2 0 0 0-8.464-4.5c-5.628 0-10.208 4.58-10.208 10.208a1.458 1.458 0 0 0 2.267 1.214l4.375-2.917zM63.396 52.672a1.457 1.457 0 0 0-1.497.073l-4.375 2.916a1.457 1.457 0 1 0 1.618 2.427l1.355-.903a7.301 7.301 0 0 1-6.539 4.065 7.293 7.293 0 0 1-6.048-3.216 1.456 1.456 0 0 0-2.024-.391 1.456 1.456 0 0 0-.391 2.023 10.2 10.2 0 0 0 8.463 4.5c5.629 0 10.209-4.58 10.209-10.208 0-.538-.297-1.032-.77-1.286z"/>
    </g>
</svg>
