<?xml version="1.0" encoding="UTF-8"?>
<svg width="60px" height="66px" viewBox="0 0 60 66" version="1.1" xmlns="http://www.w3.org/2000/svg" xmlns:xlink="http://www.w3.org/1999/xlink">
    <!-- Generator: Sketch 61.2 (89653) - https://sketch.com -->
    <title>graph</title>
    <desc>Created with Sketch.</desc>
    <g id="main" stroke="none" stroke-width="1" fill="none" fill-rule="evenodd">
        <g id="main-1440" transform="translate(-109.000000, -1976.000000)" fill-rule="nonzero">
            <g id="graph" transform="translate(109.000000, 1976.000000)">
                <path d="M58.3567657,34.4799042 C55.3239442,31.4606781 51.8177948,34.2865448 51.8177948,34.2865448 L51.8177948,18.3923035 C51.8177948,17.858551 51.3852539,17.4255067 50.8515015,17.4255067 C50.3172455,17.4255067 49.8847046,17.858551 49.8847046,18.3923035 L49.8847046,35.6466064 C49.8847046,35.6466064 45.2747955,39.2806549 43.2933654,40.1688995 L43.2933654,11.550705 C43.2933654,10.2203521 44.3754731,9.13824463 45.7058258,9.13824463 L47.4722442,9.13824463 C48.8025971,9.13824463 49.8847046,10.2203521 49.8847046,11.550705 L49.8847046,14.4344787 C49.8847046,14.9687348 50.3172455,15.4012756 50.8515015,15.4012756 C51.3852539,15.4012756 51.8177948,14.9687348 51.8177948,14.4344787 L51.8177948,11.550705 C51.8177948,9.15435791 49.8685913,7.20515439 47.4722442,7.20515439 L45.7058258,7.20515439 C43.3094787,7.20515439 41.3597717,9.15435791 41.3597717,11.550705 L41.3597717,40.9352875 C40.7832184,41.0969238 40.1915588,41.2066955 39.590332,41.2646026 L39.590332,20.8828125 C39.590332,18.4743805 37.6310577,16.5151063 35.2231293,16.5151063 L33.4995117,16.5151063 C31.0915832,16.5151063 29.132309,18.4743805 29.132309,20.8828125 L29.132309,30.7330627 L27.3623657,31.6726685 L27.3623657,28.3946229 C27.3623657,26.2263794 25.5984649,24.4624786 23.4307251,24.4624786 L20.8364868,24.4624786 C18.6682433,24.4624786 16.9048462,26.2263794 16.9048462,28.3946229 L16.9048462,37.2236938 L13.7481537,38.8989716 L4.88383487,41.4322814 C3.3414917,41.872879 2.05343634,42.8829804 1.25784295,44.2757721 C0.461746184,45.6690674 0.245727539,47.2914735 0.649566586,48.8438873 L1.64103702,52.6587066 C1.77497861,53.1753388 2.30268857,53.4850158 2.81982422,53.3510742 C3.33645623,53.216629 3.6466369,52.688919 3.5121918,52.1717834 L2.5207215,48.3574677 C1.94567871,46.1449127 3.21711728,43.9192657 5.41557315,43.2913514 L13.52005,40.9750672 L19.6113739,57.2323608 C20.0192413,58.3210145 19.9547882,61.4268494 16.7326356,62.5713959 L10.608078,63.9626769 C8.47357178,64.4470825 6.37028507,63.1675873 5.8194122,61.0486908 L4.57617187,56.2645568 C4.44172665,55.7479248 3.91401669,55.4377441 3.39738468,55.5716857 C2.88024902,55.7061309 2.57057187,56.2338409 2.70451358,56.7509766 L3.94825741,61.5356141 C4.64717099,64.2235107 7.03495792,65.9994965 9.69314569,65.9994965 C11.6463775,65.9994965 17.161148,64.4566498 17.161148,64.4566498 C18.8394471,64.0759735 20.2705078,62.9883271 21.0867462,61.4736786 C21.7604828,60.2238922 21.9603882,58.7857818 21.6713563,57.4156494 L42.8603211,52.2281799 C44.6126404,51.7986602 46.2763367,50.9663086 47.6701356,49.820755 L57.9816284,41.3481903 C61.1252289,38.560089 59.2812652,35.3998719 58.3567657,34.4799042 Z M33.4995117,18.4487 L35.2231293,18.4487 C36.5650635,18.4487 37.6567383,19.5408783 37.6567383,20.8828125 L37.6567383,41.3129425 L31.5563507,41.3104248 C30.9959106,41.3053895 31.3836365,40.9352875 31.4143524,40.9101104 L33.1712036,39.4871064 C34.8102265,38.1592713 35.8807525,36.3132935 36.3525695,33.9995269 C36.6521759,32.5317078 36.0922393,31.0623779 34.8923035,30.1650695 C33.7714233,29.3271789 32.3297882,29.1660461 31.0659027,29.7199403 L31.0659027,20.8828125 C31.0659027,19.5408783 32.1575775,18.4487 33.4995117,18.4487 Z M18.8384399,28.3946229 C18.8384399,27.2928771 19.7347412,26.3960724 20.8364868,26.3960724 L23.4307251,26.3960724 C24.5324707,26.3960724 25.4292755,27.2928771 25.4292755,28.3946229 L25.4292755,32.698883 L18.8379364,36.1974793 L18.8379364,28.3946229 L18.8384399,28.3946229 Z M56.7545014,39.8546905 L46.4425049,48.3272553 C45.2712707,49.2900238 43.8734435,49.9894409 42.400589,50.3499756 L21.0555268,55.5762177 L15.3151703,40.257019 L31.7053985,31.5568543 C32.371582,31.2028656 33.1304169,31.2617798 33.7341613,31.7134552 C34.3379059,32.1651307 34.6088105,32.8751221 34.458252,33.6133117 C34.0780792,35.4759063 33.2356567,36.9467469 31.9541474,37.9845429 L30.1972961,39.4080506 C29.4772339,39.9911499 29.2118683,40.9322662 29.5210419,41.8059082 C29.8302154,42.6790467 30.62883,43.2440186 31.5553437,43.2440186 L38.5993652,43.2470399 L38.6044006,43.2470399 C41.1120301,43.2470399 43.5219727,42.4846802 45.5733947,41.042038 L53.4457397,35.5061187 C54.5479889,34.7306671 56.0319214,34.86763 56.9735412,35.8314057 C57.5158539,36.3852997 58.5773163,38.0313721 56.7545014,39.8546905 L56.7545014,39.8546905 Z" id="Shape" fill="#0352BF"></path>
                <path d="M15.9088439,57.851715 C15.9088439,55.7514496 14.2003326,54.0424347 12.1000672,54.0424347 C9.99980167,54.0424347 8.29129022,55.7514496 8.29129022,57.851715 C8.29129022,59.9514771 9.99980167,61.660492 12.1000672,61.660492 C14.2003326,61.660492 15.9088439,59.9514771 15.9088439,57.851715 L15.9088439,57.851715 Z M10.224884,57.851715 C10.224884,56.8174438 11.0657959,55.9760284 12.1000672,55.9760284 C13.1338349,55.9760284 13.9752502,56.8174438 13.9752502,57.851715 C13.9752502,58.8854828 13.1343384,59.7268983 12.1000672,59.7268983 C11.0657959,59.7268983 10.224884,58.8854828 10.224884,57.851715 L10.224884,57.851715 Z" id="Shape" fill="#FFC718"></path>
                <path d="M5.14768985,30.3549042 L19.2014923,16.1928406 L22.3627167,17.8278351 C23.4951782,18.4134521 24.8733673,18.2130431 25.7918243,17.328827 L33.4416046,9.96505744 C33.4416046,9.96505744 33.2311249,13.7471466 36.4160156,13.7471466 C38.055542,13.7471466 39.389923,12.4127655 39.389923,10.7727355 L39.389923,2.97390741 C39.389923,2.96484375 39.3894195,2.95527646 39.3894195,2.94570916 C39.3788452,0.910903898 37.8908844,0 36.4160156,0 L28.6851654,0 C27.0451356,0 25.7112579,1.33438104 25.7112579,2.97390741 C25.7112579,6.24288947 29.038147,5.94781494 29.038147,5.94781494 L23.202118,11.5653076 L19.9950714,9.90664666 C18.8354188,9.30642694 17.4380951,9.52647403 16.5176239,10.4529877 L0.926010164,26.1649474 C-0.22911075,27.329132 -0.222061125,29.2158966 0.942123445,30.3710175 C1.50306698,30.9274292 3.41853329,32.0840606 5.14768985,30.3549042 Z M2.29815674,27.5270233 L17.8897705,11.8150635 C18.0911865,11.6126404 18.4144592,11.2581483 19.1068267,11.6242218 L22.9291992,13.60112 C23.297287,13.7914581 23.7454376,13.7265015 24.0440369,13.4389801 L32.1067199,5.67791748 C32.3907166,5.40449521 32.4803467,4.98554989 32.3328095,4.61997989 C32.1852723,4.25390625 31.8307801,4.0147247 31.4360047,4.0147247 L28.6851654,4.0147247 C28.1116333,4.0147247 27.6448517,3.54794318 27.6448517,2.97390741 C27.6448517,2.4003754 28.1116333,1.93359375 28.6851654,1.93359375 L36.4160156,1.93359375 C36.7005157,1.93359375 37.4558258,1.93359375 37.4558258,2.96786505 C37.4558258,2.9764252 37.4563293,2.98498535 37.4563293,2.99404901 L37.4563293,10.7727355 C37.4563293,11.3462677 36.9895478,11.8130493 36.4160156,11.8130493 C35.84198,11.8130493 35.3751983,11.3462677 35.3751983,10.7727355 L35.3751983,7.69258114 C35.3751983,7.30485538 35.1435699,6.95439151 34.7870636,6.80282599 C34.4305572,6.65075684 34.0176544,6.72729492 33.7381896,6.99618537 L24.4508973,15.9360352 C24.1296387,16.2452088 23.6472472,16.3157043 23.2514648,16.1107636 L19.4598084,14.1494751 C19.084671,13.9556122 18.6269531,14.0276183 18.3293609,14.3272247 L3.77554315,28.9928283 C3.14108283,29.6272889 2.50007626,29.1932373 2.30369571,28.9983673 C1.89683536,28.5940246 1.89431756,27.9338837 2.29815674,27.5270233 Z" id="Shape" fill="#FFC718"></path>
            </g>
        </g>
    </g>
</svg>